<mxfile host="app.diagrams.net" modified="2022-03-06T13:00:30.555Z" agent="5.0 (Windows NT 10.0; Win64; x64) AppleWebKit/537.36 (KHTML, like Gecko) Chrome/99.0.4844.51 Safari/537.36" etag="ux6RLPW5aiAQOcd214nF" version="16.6.4" type="github">
  <diagram id="Dg_mA4ptCI6hM2hjOGmG" name="Page-1">
    <mxGraphModel dx="1038" dy="547" grid="1" gridSize="10" guides="1" tooltips="1" connect="1" arrows="1" fold="1" page="1" pageScale="1" pageWidth="827" pageHeight="1169" math="0" shadow="0">
      <root>
        <mxCell id="0" />
        <mxCell id="1" parent="0" />
        <mxCell id="Lih3e32EG-EI3loHQNpi-12" style="edgeStyle=orthogonalEdgeStyle;rounded=0;orthogonalLoop=1;jettySize=auto;html=1;exitX=1;exitY=0.25;exitDx=0;exitDy=0;entryX=0;entryY=0.5;entryDx=0;entryDy=0;strokeWidth=4;" edge="1" parent="1" source="Lih3e32EG-EI3loHQNpi-1" target="Lih3e32EG-EI3loHQNpi-10">
          <mxGeometry relative="1" as="geometry">
            <Array as="points">
              <mxPoint x="460" y="200" />
              <mxPoint x="530" y="200" />
            </Array>
          </mxGeometry>
        </mxCell>
        <mxCell id="Lih3e32EG-EI3loHQNpi-15" value="" style="edgeStyle=orthogonalEdgeStyle;rounded=0;orthogonalLoop=1;jettySize=auto;html=1;fontSize=22;strokeWidth=4;" edge="1" parent="1" source="Lih3e32EG-EI3loHQNpi-1" target="Lih3e32EG-EI3loHQNpi-11">
          <mxGeometry relative="1" as="geometry">
            <Array as="points">
              <mxPoint x="500" y="350" />
              <mxPoint x="500" y="350" />
            </Array>
          </mxGeometry>
        </mxCell>
        <mxCell id="Lih3e32EG-EI3loHQNpi-1" value="&lt;b&gt;&lt;font style=&quot;font-size: 22px&quot;&gt;Arduino Uno&lt;/font&gt;&lt;/b&gt;" style="rounded=0;whiteSpace=wrap;html=1;fillColor=#f8cecc;gradientColor=#ea6b66;strokeColor=#b85450;strokeWidth=5;" vertex="1" parent="1">
          <mxGeometry x="340" y="130" width="120" height="330" as="geometry" />
        </mxCell>
        <mxCell id="Lih3e32EG-EI3loHQNpi-3" value="" style="edgeStyle=orthogonalEdgeStyle;rounded=0;orthogonalLoop=1;jettySize=auto;html=1;entryX=0.007;entryY=0.153;entryDx=0;entryDy=0;entryPerimeter=0;strokeWidth=4;" edge="1" parent="1" source="Lih3e32EG-EI3loHQNpi-2" target="Lih3e32EG-EI3loHQNpi-1">
          <mxGeometry relative="1" as="geometry">
            <mxPoint x="310" y="180" as="targetPoint" />
          </mxGeometry>
        </mxCell>
        <mxCell id="Lih3e32EG-EI3loHQNpi-2" value="&lt;b&gt;&lt;font style=&quot;font-size: 22px&quot;&gt;LDR Sensor&lt;/font&gt;&lt;/b&gt;" style="rounded=1;whiteSpace=wrap;html=1;fillColor=#f8cecc;gradientColor=#ea6b66;strokeColor=#b85450;strokeWidth=5;" vertex="1" parent="1">
          <mxGeometry x="80" y="150" width="170" height="60" as="geometry" />
        </mxCell>
        <mxCell id="Lih3e32EG-EI3loHQNpi-5" value="" style="edgeStyle=orthogonalEdgeStyle;rounded=0;orthogonalLoop=1;jettySize=auto;html=1;strokeWidth=4;" edge="1" parent="1" source="Lih3e32EG-EI3loHQNpi-4" target="Lih3e32EG-EI3loHQNpi-1">
          <mxGeometry relative="1" as="geometry">
            <Array as="points">
              <mxPoint x="320" y="280" />
              <mxPoint x="320" y="280" />
            </Array>
          </mxGeometry>
        </mxCell>
        <mxCell id="Lih3e32EG-EI3loHQNpi-4" value="&lt;b&gt;&lt;font style=&quot;font-size: 22px&quot;&gt;Ultrasonic Sensor&lt;/font&gt;&lt;/b&gt;" style="rounded=1;whiteSpace=wrap;html=1;fillColor=#f8cecc;gradientColor=#ea6b66;strokeColor=#b85450;strokeWidth=5;" vertex="1" parent="1">
          <mxGeometry x="80" y="250" width="170" height="60" as="geometry" />
        </mxCell>
        <mxCell id="Lih3e32EG-EI3loHQNpi-9" style="edgeStyle=orthogonalEdgeStyle;rounded=0;orthogonalLoop=1;jettySize=auto;html=1;entryX=0.083;entryY=0.758;entryDx=0;entryDy=0;entryPerimeter=0;strokeWidth=4;" edge="1" parent="1" source="Lih3e32EG-EI3loHQNpi-6" target="Lih3e32EG-EI3loHQNpi-1">
          <mxGeometry relative="1" as="geometry" />
        </mxCell>
        <mxCell id="Lih3e32EG-EI3loHQNpi-6" value="&lt;b&gt;&lt;font style=&quot;font-size: 22px&quot;&gt;Power Supply&lt;/font&gt;&lt;/b&gt;" style="rounded=1;whiteSpace=wrap;html=1;fillColor=#f8cecc;gradientColor=#ea6b66;strokeColor=#b85450;strokeWidth=5;" vertex="1" parent="1">
          <mxGeometry x="80" y="350" width="170" height="60" as="geometry" />
        </mxCell>
        <mxCell id="Lih3e32EG-EI3loHQNpi-10" value="&lt;b&gt;&lt;font style=&quot;font-size: 22px&quot;&gt;LED Display&lt;/font&gt;&lt;/b&gt;" style="rounded=1;whiteSpace=wrap;html=1;fillColor=#dae8fc;strokeColor=#6c8ebf;gradientColor=#7ea6e0;strokeWidth=5;" vertex="1" parent="1">
          <mxGeometry x="550" y="170" width="170" height="60" as="geometry" />
        </mxCell>
        <mxCell id="Lih3e32EG-EI3loHQNpi-11" value="&lt;b&gt;&lt;font style=&quot;font-size: 22px&quot;&gt;Servo Motor&lt;/font&gt;&lt;/b&gt;" style="rounded=1;whiteSpace=wrap;html=1;fillColor=#dae8fc;gradientColor=#7ea6e0;strokeColor=#6c8ebf;strokeWidth=5;" vertex="1" parent="1">
          <mxGeometry x="550" y="320" width="170" height="60" as="geometry" />
        </mxCell>
        <mxCell id="Lih3e32EG-EI3loHQNpi-17" value="" style="edgeStyle=orthogonalEdgeStyle;rounded=0;orthogonalLoop=1;jettySize=auto;html=1;fontSize=22;strokeWidth=4;" edge="1" parent="1" source="Lih3e32EG-EI3loHQNpi-16" target="Lih3e32EG-EI3loHQNpi-1">
          <mxGeometry relative="1" as="geometry">
            <Array as="points">
              <mxPoint x="400" y="100" />
              <mxPoint x="400" y="100" />
            </Array>
          </mxGeometry>
        </mxCell>
        <mxCell id="Lih3e32EG-EI3loHQNpi-16" value="&lt;b&gt;Potentiometer&lt;br&gt;as Rain Sensor&lt;/b&gt;" style="rounded=1;whiteSpace=wrap;html=1;fontSize=22;fillColor=#f8cecc;strokeColor=#b85450;gradientColor=#EA6B66;strokeWidth=5;" vertex="1" parent="1">
          <mxGeometry x="280" y="30" width="250" height="60" as="geometry" />
        </mxCell>
      </root>
    </mxGraphModel>
  </diagram>
</mxfile>
